PathFileType	4	(X/Y/Z)	Apose_0-50.trc
DataRate	CameraRate	NumFrames	NumMarkers	Units	OrigDataRate	OrigDataStartFrame	OrigNumFrames
30	30	9	22	m	30	25	50
Frame#	Time	Hip			RHip			RKnee			RAnkle			RBigToe			RSmallToe			RHeel			LHip			LKnee			LAnkle			LBigToe			LSmallToe			LHeel			Neck			Head			Nose			RShoulder			RElbow			RWrist			LShoulder			LElbow			LWrist		
		X1	Y1	Z1	X2	Y2	Z2	X3	Y3	Z3	X4	Y4	Z4	X5	Y5	Z5	X6	Y6	Z6	X7	Y7	Z7	X8	Y8	Z8	X9	Y9	Z9	X10	Y10	Z10	X11	Y11	Z11	X12	Y12	Z12	X13	Y13	Z13	X14	Y14	Z14	X15	Y15	Z15	X16	Y16	Z16	X17	Y17	Z17	X18	Y18	Z18	X19	Y19	Z19	X20	Y20	Z20	X21	Y21	Z21	X22	Y22	Z22
26	0.8666666666666667	0.03255664073838052	0.887233654837267	0.3612564733241041	0.030557669923007257	0.888296569876094	0.4742089671713369	0.004478567171682905	0.5035540019221858	0.5030067407198104	-0.006028416228628999	0.10333869831546816	0.5118522876394337	0.0	0.0	0.0	0.0	0.0	0.0	0.0	0.0	0.0	0.03477383962817842	0.8872465625420338	0.24823973383821868	0.028403382508769184	0.4980189173319846	0.2225033940476875	0.003485762408333929	0.12398595224989427	0.2066676889391848	0.0	0.0	0.0	0.0	0.0	0.0	0.0	0.0	0.0	0.026082466309826968	1.4793158592860953	0.34943761696212156	0.29483225675495545	1.7248568720101087	0.3665928581584962	0.2756522950086825	1.6093766791379034	0.3507191447572665	0.03174601334936741	1.4924230373251246	0.5431849144700563	0.06417760417180456	1.2399682980994013	0.7144360667771068	0.13654484185401766	1.036101024543003	0.8873073016244252	0.015766533120253896	1.4739504958517202	0.14579422957483365	0.022271933723620147	1.2219293885173421	-0.0024881172537122194	0.0865886079824387	1.0155126094116205	-0.14962493882323336
27	0.9	0.033312176796376554	0.8865584374228368	0.3610338092728182	0.03127559241505509	0.8875901815726619	0.4740532758334127	0.0031949250518291342	0.5061223537499591	0.5021855766875951	-0.00576288878029292	0.10492191598658494	0.5112848812809445	0.0	0.0	0.0	0.0	0.0	0.0	0.0	0.0	0.0	0.03551800064725345	0.886587551354233	0.24796037512419697	0.025419444733508215	0.49476226881033536	0.221012673426047	0.003691770849809201	0.1248918252720523	0.20668551847517208	0.0	0.0	0.0	0.0	0.0	0.0	0.0	0.0	0.0	0.02658634775732979	1.4793982335485303	0.3493547680615793	0.2900887752296693	1.724264137691003	0.3696188364676369	0.27652699483278365	1.6113678425957028	0.3556492602453188	0.03190212565169936	1.4926463525996685	0.5430224585894584	0.06260358180099829	1.2389044925000559	0.7136242378853572	0.14011101618864666	1.0339753184040286	0.8855362449256335	0.016379119163434677	1.4737109903092698	0.14575226520563303	0.02350343666172145	1.2223184793389261	-0.0025900723957903984	0.08596449671323074	1.0149515723018554	-0.14927821613844153
28	0.9333333333333332	0.03378481995990181	0.8860516373743472	0.36072948385818376	0.03176065430042048	0.8870390050580129	0.4738989008757428	0.0023306878547884767	0.5078215816482666	0.5013986239565704	-0.005760143242183939	0.10735067287269659	0.5107162280840354	0.0	0.0	0.0	0.0	0.0	0.0	0.0	0.0	0.0	0.03594884878611735	0.8861129281067742	0.24751062203175014	0.023405781459586557	0.49216915541358247	0.21989239001659286	0.004212717615690641	0.1259464439639549	0.20682505815775346	0.0	0.0	0.0	0.0	0.0	0.0	0.0	0.0	0.0	0.02732441767753944	1.4791764451387683	0.34922801601826137	0.286697914668189	1.724062397953333	0.37169386543060856	0.2767397668611159	1.6128600663408985	0.3584987385312463	0.03215255030552641	1.4928862899363504	0.5428374301077609	0.06232495609537971	1.237879725521347	0.7133043764055159	0.14320550230164628	1.0323061778650313	0.8840382442605497	0.017033653524472524	1.473598468740137	0.14586344151681122	0.024104342883788685	1.222373144595432	-0.002835265310659213	0.08536319425506542	1.0143836934451458	-0.14888596322669143
29	0.9666666666666668	0.033994253598504436	0.8858574791179018	0.3603932765636935	0.03198392228589259	0.8867773771059306	0.47378216055512856	0.00183026553633087	0.5087506122273247	0.5006254375141107	-0.006072661190311036	0.11045899288665942	0.510153572078917	0.0	0.0	0.0	0.0	0.0	0.0	0.0	0.0	0.0	0.036128632224308205	0.8859749269149347	0.2469526487149949	0.023243997451260705	0.49126427755242	0.21952656941393414	0.00476931099485101	0.12679647488773366	0.20695637139515582	0.0	0.0	0.0	0.0	0.0	0.0	0.0	0.0	0.0	0.0279498763429359	1.4789513499669855	0.3491820963067007	0.2848001872370156	1.7242656627240136	0.3729882824374901	0.27483245917721033	1.6130609063082242	0.35792362888301693	0.03245648977023192	1.4931074062095828	0.5427322294054899	0.06312914542914151	1.2369974502527967	0.7134034391514654	0.14580601238824087	1.0311240078404316	0.8829931719583638	0.017505487237204402	1.4736368244553126	0.1461223188948207	0.024018975238634485	1.2223483414105096	-0.0031086794041539694	0.08483478785333275	1.0140727277215131	-0.1485757433400808
30	1.0	0.03411258561544144	0.8859265281777291	0.36010169078123827	0.03204304965957767	0.8867256675731411	0.47373349303935275	0.0015608395447111315	0.5090491942139479	0.4998648797480266	-0.006657687931731938	0.1135020296280998	0.5096730197866225	0.0	0.0	0.0	0.0	0.0	0.0	0.0	0.0	0.0	0.036292751125619534	0.8861594518443764	0.2464101297942095	0.024867790138985994	0.4921688125644575	0.2198576294821489	0.0049899718103970335	0.12723491151763563	0.20705142786353908	0.0	0.0	0.0	0.0	0.0	0.0	0.0	0.0	0.0	0.028125615083665324	1.4791024829273158	0.34932644437987387	0.2841670066601045	1.7247579754569409	0.37369456357435604	0.27071682141892695	1.6119511331404839	0.35427046766702536	0.03276609304674999	1.4932809115109773	0.5427609741029735	0.06395871532582985	1.2363664164477053	0.7134914009304454	0.1478874930474515	1.0303767388595721	0.8824532367990318	0.017685775857685417	1.4737269356904725	0.14648500740141257	0.023426612874427776	1.222319335892449	-0.00326898175253355	0.08429080384604179	1.0140671076893861	-0.14846523597873465
31	1.0333333333333334	0.03431180061896014	0.8860240787756846	0.3599238199229399	0.03210218850259493	0.8866734272632731	0.47374715421405567	0.001487909437811604	0.5087581494621495	0.4991628080301444	-0.007364704783017717	0.11555104591934226	0.5093181983944362	0.0	0.0	0.0	0.0	0.0	0.0	0.0	0.0	0.0	0.03661454890725183	0.8864094200191086	0.24602951009891535	0.027372968370120637	0.49410329355062615	0.22049483217458335	0.004737766334124787	0.12729551128036992	0.20718262779605506	0.0	0.0	0.0	0.0	0.0	0.0	0.0	0.0	0.0	0.02775322265049711	1.4798173801888517	0.3496674040708083	0.28446170020388245	1.7254867550784045	0.3738921605014892	0.26605925487553506	1.610472143065714	0.34973371083044247	0.03306241290855619	1.4933573212149784	0.542892021448532	0.06409678564610036	1.2359688133730429	0.7132651084884511	0.14927218804414033	1.0300172356689228	0.8824591906917931	0.01759940871637461	1.4737665262536699	0.14691056913142084	0.02266228262355881	1.2222712542412877	-0.003214740193204026	0.08366344376977611	1.0143057325897513	-0.1485043645157374
32	1.0666666666666669	0.03464217500011764	0.8859411062243325	0.35986850941680637	0.032290827562236654	0.8864721499721798	0.47378425477005603	0.0016508451390693812	0.5078727666816633	0.49863364997681825	-0.007993698805300304	0.11634304624881993	0.5090369882467991	0.0	0.0	0.0	0.0	0.0	0.0	0.0	0.0	0.0	0.03707084566526854	0.8864490579465598	0.24587018901641625	0.029639245629102036	0.49599950829535955	0.22103232430644423	0.0041237243006910645	0.127047195593033	0.20738273747313468	0.0	0.0	0.0	0.0	0.0	0.0	0.0	0.0	0.0	0.027041753163908673	1.4809566949812947	0.35010773896523856	0.2854042366398341	1.7265492302788568	0.3734647999313209	0.2628918047727969	1.6097785643856812	0.34659463811766134	0.033378290894680494	1.4932742501082479	0.543032944851541	0.0639990476105378	1.2355489904230763	0.7128978931665024	0.1498798442786017	1.0299652548535678	0.8829831538784801	0.01735881807747727	1.4737237840999933	0.14736157508937564	0.022040600088574128	1.222226727496292	-0.002948752791814758	0.08304403654500685	1.0147036619395018	-0.14848312498464267
33	1.1	0.03503566220914481	0.88573488472154	0.3598834371637429	0.032630707270890895	0.8862050381304636	0.4738017373369151	0.0020858705202220886	0.5065058625976583	0.49841345229120715	-0.008376294858127274	0.11651526403299882	0.5087766582958979	0.0	0.0	0.0	0.0	0.0	0.0	0.0	0.0	0.0	0.03751809395838997	0.886301761037533	0.2458725446872704	0.03117563228517078	0.49737298626086107	0.22134981352108316	0.003383575813565102	0.12646031426928026	0.20754099372151702	0.0	0.0	0.0	0.0	0.0	0.0	0.0	0.0	0.0	0.02643550401055383	1.4820085616933425	0.35049141494403974	0.28678320108163574	1.7281250424175856	0.37224683440059997	0.2615600494883108	1.6102028445869323	0.34515746318944207	0.03375087876441181	1.4930076740135825	0.543120667699319	0.06474521203905866	1.234832135311141	0.7128646523579683	0.14990699480485292	1.0300990967788806	0.8838477816648337	0.01710421396373534	1.4736224261723003	0.14777475859170097	0.021762569695407637	1.222239980905322	-0.002580657749117976	0.08258087710769928	1.0151011558357477	-0.1482458088332559
34	1.1333333333333333	0.03539766039744635	0.8856668395785785	0.3599420163193189	0.03305723002336953	0.8861300747561777	0.47381270053776786	0.002805186706047951	0.5049716778896138	0.498535309314995	-0.008428797287654288	0.11687640260915014	0.5086211356016265	0.0	0.0	0.0	0.0	0.0	0.0	0.0	0.0	0.0	0.037842313325921306	0.886230422293626	0.24597116553939705	0.03234865464457186	0.49854725661674804	0.22167087938878513	0.0027736194554236456	0.12551358318404654	0.20749917627308656	0.0	0.0	0.0	0.0	0.0	0.0	0.0	0.0	0.0	0.02634499078546451	1.4824041103818766	0.35066169906804956	0.2882808068914908	1.7303777724113876	0.3703559441368158	0.26103770652257136	1.611485196150523	0.34446503645067045	0.03412561466153863	1.4926167767683745	0.5431584571683437	0.06677943665022812	1.2338408110260881	0.7134377109772524	0.14969291744995963	1.0303013390062112	0.8847905027916748	0.01694579465766692	1.473536463757988	0.14804968958925402	0.021883529473756314	1.2223186069990197	-0.002210616450651807	0.08232759300379983	1.015354393937418	-0.14782497804077524
